Coordinates
nRows=6
nColumns=38

# SIMM Motion File Header:
name Coordinates
datacolumns 38
datarows 6
otherdata 1
range 1.94700000000000010000 1.95200000000000000000

Units are S.I. units (second, meters, Newtons, ...)
Angles are in degrees.

endheader
time	pelvis_tilt	pelvis_list	pelvis_rotation	pelvis_tx	pelvis_ty	pelvis_tz	hip_flexion_r	hip_adduction_r	hip_rotation_r	knee_angle_r	ankle_angle_r	subtalar_angle_r	mtp_angle_r	hip_flexion_l	hip_adduction_l	hip_rotation_l	knee_angle_l	ankle_angle_l	subtalar_angle_l	mtp_angle_l	lumbar_extension	lumbar_bending	lumbar_rotation	arm_flex_r	arm_add_r	arm_rot_r	elbow_flex_r	pro_sup_r	wrist_flex_r	wrist_dev_r	arm_flex_l	arm_add_l	arm_rot_l	elbow_flex_l	pro_sup_l	wrist_flex_l	wrist_dev_l
      1.94700000000000010000	    -12.79872332760613300000	     -1.83418028889104170000	     -3.27808144349339960000	      1.01247738367960820000	      0.98630007805716879000	     -0.34703806639414930000	     18.24848027148132700000	      7.37887706479991130000	      4.40205507134548850000	    -33.57476011791000300000	     21.81482320217056500000	     -0.00000000000002687851	      0.00000000000003379287	     37.92937257973705600000	     -2.45201765397263300000	     -0.37075035389865285000	    -77.97290663277459500000	      6.30143566810497640000	      0.00000000000000155429	      0.00000000000000900775	     -0.70546222756896637000	      5.61528487838063040000	     10.27162689632417700000	    -17.25997167323559000000	    -19.39030266727461100000	     -7.66225822304877370000	    101.07729774454489000000	    112.43237475765545000000	     -0.00000000000000220580	     -0.00000000000000241047	    -33.83073271938945900000	    -15.10558879510245400000	     -1.58767461859032570000	    104.32089777768343000000	    100.60630743944445000000	      0.00000000000000483553	      0.00000000000000263133
      1.94800000000000000000	    -12.82330072845512300000	     -1.78610987346502710000	     -3.25376326919056020000	      1.01256699379516980000	      0.98680536072175817000	     -0.34705302769503787000	     18.03593800030690600000	      7.31000043735570330000	      4.41832157490429810000	    -33.35551969374478200000	     21.63709497565195900000	     -0.00000000000002725312	      0.00000000000003433541	     38.01709521061353300000	     -2.40033127893529890000	     -0.38716332827397493000	    -77.73164534799630600000	      6.34779118877572660000	      0.00000000000000151175	      0.00000000000000917952	     -0.66168295511397945000	      5.54698777662247440000	     10.32707908111556500000	    -17.23274019671134000000	    -19.38412243450635200000	     -7.60563118871422090000	    101.32005238859965000000	    112.46453925842145000000	     -0.00000000000000222477	     -0.00000000000000240903	    -33.96000088551325300000	    -15.13337338620631700000	     -1.65263628893638500000	    104.51296576474500000000	    100.57259290772680000000	      0.00000000000000489397	      0.00000000000000268100
      1.94900000000000010000	    -12.84736079850089600000	     -1.73797225813979540000	     -3.22881410331393150000	      1.01265937779011740000	      0.98731762561591707000	     -0.34706822617732680000	     17.82310140624563400000	      7.24070721408611640000	      4.43320967639926430000	    -33.13599419911783900000	     21.45353716222518500000	     -0.00000000000002760509	      0.00000000000003486928	     38.10226854876639600000	     -2.34864559965368840000	     -0.40439475567378669000	    -77.48631518594957900000	      6.39451511703822910000	      0.00000000000000147672	      0.00000000000000934192	     -0.61829558279856534000	      5.47829031136848070000	     10.38080252821476500000	    -17.20575486170106700000	    -19.37762179277756400000	     -7.54844029077986710000	    101.56227032127372000000	    112.49912559175553000000	     -0.00000000000000224360	     -0.00000000000000239430	    -34.08934535902718500000	    -15.16041937028343000000	     -1.71942110185222430000	    104.70499312360182000000	    100.54710091221398000000	      0.00000000000000495357	      0.00000000000000273003
      1.95000000000000000000	    -12.87085807007060000000	     -1.68979825737525300000	     -3.20321603956630030000	      1.01275443019823990000	      0.98783678824524424000	     -0.34708366484557807000	     17.60998163856392700000	      7.17103167276932570000	      4.44664022566316320000	    -32.91627088465102700000	     21.26417434548245900000	     -0.00000000000002793612	      0.00000000000003541081	     38.18485551227061600000	     -2.29697032416086170000	     -0.42240013628446665000	    -77.23693682196950800000	      6.44160132788271690000	      0.00000000000000143985	      0.00000000000000949415	     -0.57538593065635224000	      5.40922083067734770000	     10.43279739235265600000	    -17.17900561213885900000	    -19.37079644386619400000	     -7.49069293903056100000	    101.80389931843567000000	    112.53608437760994000000	     -0.00000000000000226218	     -0.00000000000000237120	    -34.21869843380653700000	    -15.18673109247352400000	     -1.78797527760145990000	    104.89687167790017000000	    100.52952336000365000000	      0.00000000000000501143	      0.00000000000000277943
      1.95100000000000010000	    -12.89375140850937200000	     -1.64161549866033130000	     -3.17695176117396020000	      1.01285204137845430000	      0.98836275560702114000	     -0.34709934787151969000	     17.39659474435385900000	      7.10100544167766220000	      4.45853529385602520000	    -32.69643731243325400000	     21.06904002779375100000	     -0.00000000000002823684	      0.00000000000003591013	     38.26482416260350300000	     -2.24531085048396410000	     -0.44113484570779038000	    -76.98353043201721800000	      6.48904306929056050000	      0.00000000000000140093	      0.00000000000000964692	     -0.53303514175792155000	      5.33980446033003720000	     10.48306511920685800000	    -17.15248494285867800000	    -19.36364189432028100000	     -7.43239799563566980000	    102.04489445173401000000	    112.57535887851536000000	     -0.00000000000000228072	     -0.00000000000000234038	    -34.34799417408590500000	    -15.21231482743119800000	     -1.85824206689862190000	    105.08850052786860000000	    100.51952514213612000000	      0.00000000000000506118	      0.00000000000000283075
      1.95200000000000000000	    -12.91600427634979400000	     -1.59344840540873810000	     -3.15000471347346120000	      1.01295209797752460000	      0.98889542588057877000	     -0.34711528065385239000	     17.18296188625365100000	      7.03065749633655910000	      4.46881844715385590000	    -32.47658132763128000000	     20.86817678561632400000	     -0.00000000000002853504	      0.00000000000003640453	     38.34214789442631900000	     -2.19366840498252500000	     -0.46055440448211848000	    -76.72611571003847100000	      6.53683283935449390000	      0.00000000000000135660	      0.00000000000000980545	     -0.49131924484797196000	      5.27006317633171670000	     10.53160846850944300000	    -17.12618779048375800000	    -19.35615355254155300000	     -7.37356563424769360000	    102.28521775139892000000	    112.61688575059267000000	     -0.00000000000000229921	     -0.00000000000000230549	    -34.47716858404904600000	    -15.23717857987790400000	     -1.93016199425713110000	    105.27978581718332000000	    100.51674660765991000000	      0.00000000000000510581	      0.00000000000000288323
